<?xml version="1.0" encoding="iso-8859-1"?>
<!-- Uploaded to: SVG Repo, www.svgrepo.com, Generator: SVG Repo Mixer Tools -->
<svg fill="#000000" height="800px" width="800px" version="1.1" id="Layer_1" xmlns="http://www.w3.org/2000/svg" xmlns:xlink="http://www.w3.org/1999/xlink" 
	 viewBox="0 0 512.001 512.001" xml:space="preserve">
<g>
	<g>
		<g>
			<path d="M365.241,291.956c0-12.675-10.311-22.987-22.986-22.987c-12.675,0-22.986,10.313-22.986,22.987
				c0,12.675,10.311,22.986,22.986,22.986C354.93,314.943,365.241,304.631,365.241,291.956z M335.398,291.956
				c0-3.783,3.076-6.859,6.858-6.859c3.78,0,6.858,3.076,6.858,6.859c0,3.782-3.076,6.858-6.858,6.858
				S335.398,295.738,335.398,291.956z"/>
			<path d="M400.299,291.955c0-32.005-26.039-58.044-58.044-58.044c-32.005,0-58.044,26.039-58.044,58.044
				c0,32.005,26.038,58.044,58.044,58.044C374.26,349.999,400.299,323.961,400.299,291.955z M300.34,291.955
				c0-23.112,18.804-41.915,41.915-41.915c23.112,0,41.915,18.804,41.915,41.915s-18.804,41.915-41.915,41.915
				C319.143,333.871,300.34,315.067,300.34,291.955z"/>
			<path d="M82.239,193.241c3.149-3.149,3.149-8.255,0-11.405c-27.293-27.292-27.292-71.703,0.002-99
				c27.292-27.292,71.702-27.292,98.997,0.001c6.704,6.706,11.885,14.511,15.393,23.181c0.54,1.344,1.193,2.679,1.946,3.976
				c5.94,10.206,13.105,19.534,21.295,27.722c37.007,37.011,85.827,42.975,111.621,43.234c0.875,0.019,1.755-0.016,2.603-0.082
				c31.452-2.326,62.271,9.103,84.531,31.364c42.182,42.18,42.18,110.815-0.001,152.995c-20.398,20.399-47.566,31.633-76.497,31.633
				c-28.932,0-56.1-11.234-76.497-31.631l-164.6-164.685c-3.148-3.151-8.253-3.153-11.404-0.003
				c-3.15,3.148-3.151,8.255-0.003,11.405l164.601,164.686c23.445,23.445,54.663,36.357,87.904,36.357
				c33.24,0,64.456-12.911,87.902-36.354c48.469-48.47,48.47-127.336,0.001-175.805c-25.581-25.581-60.982-38.718-97.141-36.043
				c-0.399,0.03-0.802,0.044-1.226,0.038c-23.346-0.234-67.434-5.551-100.389-38.51c-7.207-7.206-13.519-15.426-18.755-24.423
				c-0.36-0.623-0.671-1.255-0.931-1.902c-4.33-10.704-10.705-20.312-18.947-28.556c-33.583-33.579-88.225-33.579-121.807-0.001
				c-33.584,33.585-33.584,88.23-0.002,121.81C73.984,196.391,79.09,196.392,82.239,193.241z"/>
			<path d="M512.001,288.732c0-45.443-17.651-88.12-49.7-120.17c-34.6-34.599-82.45-52.584-131.321-49.385
				c-13.266-0.274-45.628-3.32-67.434-25.128c-3.993-3.992-7.566-8.536-10.628-13.512c-6.602-15.467-16.023-29.384-28.007-41.368
				c-51.374-51.373-134.965-51.374-186.34-0.003C13.722,64.014,0.035,97.103,0.035,132.337c0,9.004,0.899,17.866,2.644,26.488
				c-8.815,43.549,4.518,88.077,35.89,119.448L221.96,461.664c32.049,32.049,74.726,49.699,120.169,49.699
				c45.442,0,88.121-17.65,120.171-49.699c38.217-38.22,55.961-92.858,47.654-146.424
				C511.303,306.551,512.001,297.697,512.001,288.732z M49.975,50.57C95.06,5.484,168.421,5.487,213.506,50.573
				c10.648,10.649,18.988,23.026,24.788,36.788c0.151,0.36,0.329,0.709,0.531,1.044c3.796,6.273,8.276,12.009,13.314,17.048
				c26.149,26.152,63.879,29.591,78.886,29.857c0.233,0.005,0.458-0.002,0.687-0.017c44.357-2.991,87.795,13.287,119.182,44.674
				c29.004,29.002,44.977,67.628,44.977,108.764c0,8.35-0.669,16.594-1.961,24.677c-0.029,0.133-0.062,0.264-0.084,0.399
				c-3.261,19.9-10.269,38.65-20.631,55.492c-0.033,0.053-0.065,0.106-0.098,0.158c-1.985,3.218-4.099,6.363-6.327,9.436
				c-0.145,0.199-0.287,0.4-0.433,0.598c-1.055,1.441-2.137,2.864-3.245,4.271c-0.191,0.242-0.387,0.482-0.579,0.723
				c-0.995,1.248-2.011,2.482-3.047,3.702c-0.179,0.211-0.354,0.424-0.534,0.634c-1.124,1.309-2.276,2.597-3.447,3.872
				c-0.299,0.326-0.602,0.649-0.904,0.973c-1.157,1.238-2.329,2.464-3.53,3.669c-0.053,0.053-0.103,0.107-0.156,0.16
				c-27.16,27.16-62.035,42.02-97.636,44.579c-0.358,0.025-0.717,0.043-1.076,0.065c-0.834,0.054-1.668,0.108-2.503,0.149
				c-2.506,0.12-5.023,0.182-7.549,0.182c-2.528,0-5.046-0.062-7.553-0.182c-0.808-0.039-1.616-0.092-2.424-0.144
				c-0.385-0.024-0.771-0.043-1.156-0.07c-31.806-2.288-63.029-14.395-88.692-36.318c-0.101-0.086-0.204-0.17-0.305-0.257
				c-0.781-0.67-1.552-1.356-2.322-2.044c-0.213-0.191-0.43-0.376-0.643-0.568c-0.663-0.599-1.316-1.213-1.971-1.826
				c-0.304-0.285-0.612-0.562-0.914-0.85c-0.587-0.558-1.165-1.132-1.745-1.701c-0.346-0.34-0.697-0.672-1.04-1.015L49.974,214.105
				c-0.895-0.895-1.769-1.806-2.632-2.727c-0.177-0.189-0.352-0.378-0.528-0.568c-13.987-15.128-23.64-33.631-28.009-53.796
				c-0.031-0.144-0.073-0.283-0.111-0.423c-1.668-7.883-2.532-16-2.532-24.253C16.163,101.412,28.172,72.372,49.975,50.57z
				 M450.896,450.258c-29.003,29.004-67.63,44.976-108.766,44.976c-41.135,0-79.762-15.971-108.765-44.976L49.973,266.868
				c-19.193-19.192-30.696-44.001-33.281-70.224c4.379,7.821,9.583,15.223,15.568,22.098c0.08,0.092,0.162,0.182,0.242,0.274
				c0.822,0.938,1.659,1.866,2.51,2.784c0.224,0.242,0.448,0.485,0.674,0.725c0.946,1.006,1.903,2.004,2.883,2.984l183.39,183.391
				c1.029,1.029,2.07,2.042,3.12,3.041c0.1,0.095,0.201,0.185,0.301,0.28c0.955,0.904,1.916,1.797,2.888,2.676
				c0.083,0.075,0.168,0.148,0.252,0.223c31.201,28.102,71.198,43.48,113.608,43.48c39.495,0,76.897-13.338,107.053-37.869
				c0.09-0.073,0.181-0.143,0.27-0.217c0.856-0.699,1.703-1.413,2.548-2.131c0.273-0.232,0.549-0.458,0.821-0.692
				c0.636-0.547,1.263-1.108,1.892-1.666c0.462-0.409,0.927-0.811,1.386-1.226c0.366-0.331,0.724-0.672,1.087-1.007
				c1.728-1.591,3.438-3.214,5.115-4.89c0.308-0.308,0.606-0.624,0.911-0.934c0.567-0.575,1.133-1.15,1.69-1.732
				c0.425-0.444,0.843-0.892,1.262-1.34c0.457-0.487,0.912-0.975,1.363-1.467c0.435-0.475,0.867-0.953,1.296-1.432
				c0.419-0.468,0.835-0.939,1.248-1.411c0.437-0.499,0.875-0.998,1.305-1.501c0.38-0.444,0.753-0.893,1.129-1.34
				c1.717-2.048,3.382-4.131,4.994-6.247c0.22-0.289,0.442-0.577,0.66-0.867c0.533-0.709,1.057-1.423,1.578-2.139
				c0.173-0.237,0.345-0.475,0.516-0.713c0.566-0.786,1.126-1.576,1.677-2.371c0.041-0.059,0.081-0.118,0.122-0.177
				c4.459-6.445,8.457-13.159,11.955-20.111C489.038,397.014,474.153,427.002,450.896,450.258z"/>
		</g>
	</g>
</g>
</svg>