<?xml version="1.0" encoding="iso-8859-1"?>
<!-- Uploaded to: SVG Repo, www.svgrepo.com, Generator: SVG Repo Mixer Tools -->
<svg fill="#000000" height="800px" width="800px" version="1.1" id="Layer_1" xmlns="http://www.w3.org/2000/svg" xmlns:xlink="http://www.w3.org/1999/xlink" 
	 viewBox="0 0 512 512" xml:space="preserve">
<g>
	<g>
		<path d="M510.696,446.381L336.374,171.322c-2.482-3.917-7.671-5.081-11.589-2.598c-3.918,2.482-5.081,7.671-2.598,11.589
			l166.15,262.166H471.33l-96.704-152.587c-2.483-3.917-7.672-5.081-11.589-2.598c-3.918,2.482-5.081,7.671-2.598,11.589
			l91.006,143.596h-7.671L246.305,130.89h7.671l91.798,144.848c2.482,3.917,7.67,5.081,11.589,2.598
			c3.918-2.482,5.081-7.671,2.598-11.589l-86.1-135.857h17.008l17.16,27.078c1.599,2.523,4.32,3.903,7.101,3.903
			c1.537,0,3.093-0.422,4.487-1.306c3.918-2.482,5.081-7.671,2.598-11.589l-19.633-30.98c-1.54-2.43-4.217-3.902-7.093-3.902
			H194.956c-0.097,0-0.19,0.018-0.284,0.032c-0.685,0.023-1.375,0.103-2.057,0.301c-3.589,1.041-6.057,4.329-6.057,8.065v49.672
			c0,4.638,3.76,8.398,8.398,8.398c4.638,0,8.397-3.76,8.397-8.398v-20.735l24.803,39.136H71.271c-4.638,0-8.398,3.76-8.398,8.397
			v14.858c-6.51-4.633-14.458-7.37-23.039-7.37C17.87,206.452,0,224.322,0,246.288v66.097c0,17.32,11.127,32.366,27.687,37.441
			l13.205,4.047c5.36,1.643,9.335,5.877,10.635,11.33c1.299,5.452-0.338,11.025-4.381,14.907l-7.12,6.838
			c-3.344,3.212-3.452,8.529-0.24,11.873c1.649,1.716,3.852,2.581,6.057,2.581c2.093,0,4.188-0.777,5.816-2.341l7.12-6.838
			c1.536-1.476,2.902-3.071,4.097-4.76c0.058,19.749,13.676,36.365,32.014,41.01v22.403c0,4.638,3.76,8.398,8.398,8.398h400.314
			c3.062,0,5.882-1.667,7.357-4.35C512.436,452.241,512.335,448.967,510.696,446.381z M62.874,265.913v84.247
			c-4.059-5.808-9.971-10.176-17.06-12.347l-13.205-4.047c-9.459-2.898-15.813-11.491-15.813-21.383v-66.097
			c0-12.704,10.336-23.039,23.039-23.039c12.704,0,23.039,10.336,23.039,23.039V265.913z M215.818,442.478h-20.861h-83.272V429.77
			h104.133V442.478z M232.613,442.476v-14.004c18.378-4.656,32.017-21.332,32.017-41.137v-41.62c0-4.638-3.76-8.398-8.397-8.398
			c-4.638,0-8.398,3.76-8.398,8.398v41.62c0,12.978-9.695,23.728-22.223,25.404c-0.455-0.076-123.266-0.076-123.721,0
			c-12.528-1.676-22.223-12.426-22.223-25.404V207.361h168.168v113.16c0,4.638,3.76,8.398,8.398,8.398
			c4.638,0,8.398-3.76,8.398-8.398v-72.4l123.174,194.354H232.613z M407.689,442.477l-143.058-225.73v-17.784
			c0-4.638-3.76-8.398-8.398-8.398h-8.191l-37.821-59.676h16.201l197.472,311.587H407.689z"/>
	</g>
</g>
<g>
	<g>
		<path d="M164.757,136.142c0-7.061,1.85-10.16,4.41-14.45c3.023-5.063,6.786-11.366,6.786-23.058s-3.762-17.995-6.786-23.058
			c-2.561-4.289-4.41-7.389-4.41-14.45c0-4.638-3.76-8.398-8.398-8.398c-4.638,0-8.397,3.76-8.397,8.398
			c0,11.694,3.762,17.995,6.786,23.058c2.561,4.289,4.41,7.389,4.41,14.449c0,7.061-1.85,10.16-4.41,14.45
			c-3.023,5.064-6.786,11.366-6.786,23.06c0,11.693,3.762,17.993,6.786,23.057c2.561,4.288,4.41,7.388,4.41,14.447
			c0,4.638,3.76,8.398,8.398,8.398s8.398-3.76,8.398-8.398c0-11.693-3.762-17.993-6.786-23.057
			C166.607,146.3,164.757,143.201,164.757,136.142z"/>
	</g>
</g>
</svg>