<?xml version="1.0" ?>
<!-- Uploaded to: SVG Repo, www.svgrepo.com, Generator: SVG Repo Mixer Tools -->
<svg fill="#000000" width="800px" height="800px" viewBox="0 0 108 108" id="Layeri" xmlns="http://www.w3.org/2000/svg">
<title/>
<g id="Line">
<path d="M96.47,11.71a32.34,32.34,0,0,0-23-9.49h0A32.26,32.26,0,0,0,55.12,7.88l3,2.82A28.51,28.51,0,0,1,102,34.61a28.12,28.12,0,0,1-8.36,20.08A28.6,28.6,0,0,1,71.81,63l-.61,0a10.88,10.88,0,0,0-7.82,3.26l-.15.15a15.11,15.11,0,0,1-19,2.09,15.35,15.35,0,0,1-7-11.29A15.13,15.13,0,0,1,41.61,44.8l.14-.14A10.82,10.82,0,0,0,45,36.27a28.3,28.3,0,0,1,4.57-17.14l-3-2.79A32.34,32.34,0,0,0,41,36.49a6.86,6.86,0,0,1-2.1,5.36l-.14.14a19.09,19.09,0,0,0-5.55,15.56,18.85,18.85,0,0,0,1.26,5.11L18.12,79A10.42,10.42,0,0,0,5,80.23,10.28,10.28,0,0,0,5,94.81a10.46,10.46,0,0,0,5.56,2.86,10.34,10.34,0,1,0,18.79-7.49L45.82,73.81l-.18-.18a18.7,18.7,0,0,0,6.76,1.26,19.35,19.35,0,0,0,13.65-5.72l.2-.2a6.86,6.86,0,0,1,5.33-2,32.62,32.62,0,0,0,24.89-9.43,32.27,32.27,0,0,0,0-45.8ZM24.62,89.28A1.12,1.12,0,0,0,24.75,91a6.35,6.35,0,0,1-1.65,10.86,3.94,3.94,0,0,1-.78.24,6.37,6.37,0,0,1-7.88-6.22,2,2,0,0,0-.58-1.43,2,2,0,0,0-1.42-.59h0a6.35,6.35,0,0,1-5.64-3.25,3.76,3.76,0,0,1-.31-.64A6.36,6.36,0,0,1,17.33,83.6a1.12,1.12,0,0,0,1.66.13L36.44,66.35A19.74,19.74,0,0,0,42,71.78l.12.08Z"/>
<path d="M53.45,14.52l0,0a2,2,0,0,1-2.79.07h0a2,2,0,0,1-.07-2.8l0,0a2,2,0,0,1,2.79-.07h0A2,2,0,0,1,53.45,14.52Z"/>
</g>
</svg>