<?xml version="1.0" encoding="iso-8859-1"?>
<!-- Uploaded to: SVG Repo, www.svgrepo.com, Generator: SVG Repo Mixer Tools -->
<svg fill="#000000" height="800px" width="800px" version="1.1" id="Layer_1" xmlns="http://www.w3.org/2000/svg" xmlns:xlink="http://www.w3.org/1999/xlink" 
	 viewBox="0 0 512 512" xml:space="preserve">
<g>
	<g>
		<path d="M432.108,412.95c-5.066,0-9.171,4.106-9.171,9.171v28.276c0,6.768-5.508,12.276-12.276,12.276H216.844
			c-6.761,0-12.261-5.506-12.261-12.276V313.785c7.163-2.624,14.014-4.628,20.433-5.976c4.957-1.039,8.133-5.901,7.092-10.859
			c-1.041-4.956-5.899-8.137-10.859-7.093c-9.168,1.924-19.014,4.993-29.265,9.125c-3.47,1.399-5.744,4.764-5.744,8.506v142.908
			c0,16.883,13.729,30.619,30.604,30.619h193.818c16.884,0,30.619-13.735,30.619-30.619v-28.276
			C441.279,417.056,437.174,412.95,432.108,412.95z"/>
	</g>
</g>
<g>
	<g>
		<path d="M242.482,115.945c-14.772-29.951-44.684-48.558-78.06-48.558c-34.263,0-65.446,20.212-79.442,51.495
			c-2.069,4.624,0.002,10.048,4.626,12.117c1.217,0.544,2.489,0.802,3.741,0.802c3.506,0,6.853-2.021,8.376-5.428
			c11.048-24.69,35.659-40.644,62.699-40.644c26.343,0,49.95,14.686,61.609,38.329c2.24,4.543,7.739,6.409,12.282,4.169
			C242.856,125.986,244.722,120.487,242.482,115.945z"/>
	</g>
</g>
<g>
	<g>
		<path d="M437.654,339.252c-2.286-1.734-5.251-2.298-8.012-1.529c-37.271,10.403-61.6,6.383-81.76-3.039l59.988-146.684
			c1.917-4.688-0.329-10.043-5.017-11.961c-4.69-1.917-10.042,0.329-11.961,5.017l-59.154,144.645
			c-5.019-3.186-9.914-6.579-14.853-10.009c-0.516-0.358-1.036-0.718-1.553-1.077l51.757-126.567
			c1.916-4.688-0.33-10.043-5.019-11.961c-4.69-1.917-10.042,0.33-11.961,5.017l-50.362,123.153
			c-12.659-7.797-26.527-14.302-43.613-16.331c-5.047-0.598-9.592,2.997-10.189,8.027c-0.597,5.03,2.997,9.592,8.027,10.189
			c20.33,2.413,35.744,13.014,51.998,24.303l-33.736,82.504c-1.916,4.688,0.33,10.043,5.019,11.961l34.92,14.28
			c1.113,0.455,2.292,0.682,3.472,0.682c1.207,0,2.414-0.238,3.547-0.714c2.244-0.942,4.021-2.734,4.942-4.987l31.45-76.924
			c17.907,5.471,39.475,7.148,67.352,1.047v33.255c0,5.065,4.105,9.171,9.171,9.171c5.066,0,9.171-4.106,9.171-9.171v-44.992
			C441.28,343.69,439.939,340.986,437.654,339.252z M310.626,418.741l-17.942-7.337l28.819-70.479
			c5.361,3.413,10.985,6.682,17.013,9.596L310.626,418.741z"/>
	</g>
</g>
<g>
	<g>
		<path d="M468.72,14.963l-34.918-14.28c-2.253-0.921-4.776-0.91-7.019,0.032c-2.243,0.94-4.021,2.734-4.941,4.986l-48.597,118.835
			c-1.916,4.688,0.33,10.043,5.019,11.961c4.691,1.919,10.043-0.329,11.961-5.017l45.124-110.346l17.942,7.337l-40.799,99.781
			c-1.916,4.688,0.33,10.043,5.019,11.961c1.137,0.465,2.312,0.685,3.468,0.685c3.615,0,7.04-2.151,8.493-5.702l44.269-108.27
			C475.654,22.234,473.408,16.88,468.72,14.963z"/>
	</g>
</g>
<g>
	<g>
		<path d="M223.243,332.588c-3.212,2.489-4.384,7.001-2.825,10.746c1.41,3.388,4.802,5.662,8.474,5.662
			c4.419,0,8.249-3.28,9.028-7.607C239.383,333.253,229.676,327.605,223.243,332.588z"/>
	</g>
</g>
<g>
	<g>
		<path d="M238.961,394.935c-6.178,5.487-2.133,16.023,6.085,16.023c4.479,0,8.43-3.374,9.074-7.824
			C255.316,394.853,245.249,389.349,238.961,394.935z"/>
	</g>
</g>
<g>
	<g>
		<path d="M364.665,391.897c-3.074,2.396-4.255,6.629-2.958,10.289c1.277,3.604,4.81,6.081,8.632,6.081
			c4.417,0,8.264-3.264,9.028-7.599C380.796,392.555,371.156,386.838,364.665,391.897z"/>
	</g>
</g>
<g>
	<g>
		<path d="M463.092,145.208H290.93c-4.715-65.677-59.652-117.672-126.508-117.672c-69.942,0-126.844,56.902-126.844,126.844
			c0,29.867,10.583,58.875,29.797,81.682c3.264,3.874,9.049,4.368,12.923,1.105c3.873-3.264,4.368-9.049,1.104-12.923
			C64.97,204.74,55.919,179.929,55.919,154.38c0-59.828,48.673-108.501,108.501-108.501c56.738,0,103.437,43.778,108.108,99.329
			H164.42c-5.065,0-9.171,4.106-9.171,9.171v68.02c-33.53-4.499-59.479-33.277-59.479-68.02c0-5.065-4.106-9.171-9.171-9.171
			c-5.065,0-9.171,4.106-9.171,9.171c0,44.87,34.149,81.909,77.822,86.507v21.61c-20.324-1.685-39.51-8.966-55.949-21.322
			c-4.049-3.044-9.799-2.228-12.841,1.821c-3.042,4.049-2.228,9.799,1.822,12.841c19.644,14.765,42.636,23.323,66.969,25.045
			v174.358c0,31.298,25.462,56.76,56.76,56.76h203.494c31.298,0,56.76-25.462,56.76-56.76V154.38
			C472.263,149.315,468.158,145.208,463.092,145.208z M173.593,163.551h58.848c-4.097,30.528-28.32,54.752-58.848,58.848V163.551z
			 M173.593,240.886c40.657-4.28,73.054-36.678,77.334-77.335h21.603c-4.418,52.526-46.412,94.52-98.937,98.938V240.886z
			 M453.921,455.241c0,21.183-17.234,38.417-38.417,38.417H212.01c-21.183,0-38.417-17.234-38.417-38.417V280.889
			c62.646-4.498,112.839-54.692,117.337-117.338h162.991V455.241z"/>
	</g>
</g>
</svg>