<?xml version="1.0" encoding="iso-8859-1"?>
<!-- Uploaded to: SVG Repo, www.svgrepo.com, Generator: SVG Repo Mixer Tools -->
<svg fill="#000000" height="800px" width="800px" version="1.1" id="Layer_1" xmlns="http://www.w3.org/2000/svg" xmlns:xlink="http://www.w3.org/1999/xlink" 
	 viewBox="0 0 512 512" xml:space="preserve">
<g>
	<g>
		<path d="M484.019,410.054h-40.756c11.37-18.423,14.591-41.056,8.247-62.311c-4.825-16.162-14.546-29.965-28.11-39.917
			c-13.116-9.624-29.258-14.924-45.448-14.924c-7.421,0-14.822,1.085-21.994,3.227c-5.514,1.646-10.829,3.909-15.836,6.737
			l-57.519-5.246c-3.655-0.337-7.078,1.851-8.313,5.31l-0.115,0.32l-38.807-13.862c0.202-4.404-0.677-8.817-2.618-12.914
			c-1.825-3.851-4.479-7.129-7.724-9.7l3.672-48.103h1.412c12.932,0,23.453-10.521,23.453-23.454v-5.134
			c0-11.332-8.077-20.811-18.776-22.985v-23.223c0-4.446-3.604-8.051-8.051-8.051H199.73V118.85c0-4.446-3.604-8.051-8.051-8.051
			h-12.114l24.414-92.312l46.878,12.413c4.296,1.137,8.706-1.425,9.844-5.722c1.139-4.298-1.424-8.706-5.722-9.844L200.316,0.859
			c-2.063-0.546-4.262-0.251-6.109,0.823c-1.846,1.074-3.19,2.836-3.736,4.902l-27.562,104.216H139.32
			c-4.448,0-8.051,3.605-8.051,8.051v16.972H26.827c-4.448,0-8.051,3.605-8.051,8.051v23.223C8.077,169.273,0,178.753,0,190.084
			v5.134c0,12.933,10.521,23.454,23.455,23.454h1.408l14.616,191.383H27.981C12.553,410.054,0,422.606,0,438.035v6.643
			c0,15.429,12.553,27.981,27.981,27.981h6.202l9.987,33.03c1.026,3.397,4.158,5.721,7.707,5.721h59.273
			c4.448,0,8.051-3.604,8.051-8.051s-3.604-8.051-8.051-8.051H57.854l-6.848-22.648h409.992l-6.848,22.648H141.611
			c-4.448,0-8.051,3.604-8.051,8.051s3.604,8.051,8.051,8.051h318.514c3.549,0,6.68-2.324,7.707-5.721l9.987-33.03h6.2
			c15.429,0,27.981-12.553,27.981-27.981v-6.643C512,422.606,499.447,410.054,484.019,410.054z M273.93,351.807
			c0.006-0.018,0.016-0.036,0.023-0.055l12.679-35.503c0.002-0.006,0.004-0.014,0.006-0.02l0.716-2.004l53.885,4.913
			c1.731,0.157,3.462-0.247,4.94-1.154c4.496-2.756,9.335-4.918,14.385-6.425c5.677-1.695,11.526-2.554,17.388-2.554
			c26.605,0,50.508,17.825,58.128,43.345c6.035,20.221,1.124,42.028-12.804,57.705h-90.699c-5.859-6.59-10.257-14.465-12.796-22.955
			c-0.531-1.779-1.663-3.32-3.2-4.362l-43.242-29.275L273.93,351.807z M232.176,355.772h-13.947l1.142-14.964l36.704,13.11
			l-0.002,0.006c-1.234,3.46,0.027,7.315,3.069,9.375l46.106,31.213c1.859,5.444,4.332,10.66,7.342,15.541h-55.221
			c1.652-3.551,2.581-7.505,2.581-11.672v-14.833C259.952,368.232,247.492,355.772,232.176,355.772z M60.35,399.874
			c0.009,0.163,0.026,0.325,0.038,0.487c0.024,0.33,0.047,0.66,0.082,0.987c0.02,0.189,0.048,0.377,0.072,0.565
			c0.038,0.297,0.076,0.594,0.123,0.888c0.032,0.198,0.07,0.392,0.105,0.587c0.052,0.282,0.104,0.564,0.164,0.843
			c0.043,0.198,0.09,0.394,0.136,0.59c0.065,0.273,0.132,0.545,0.206,0.815c0.053,0.195,0.108,0.389,0.165,0.582
			c0.079,0.267,0.161,0.534,0.248,0.798c0.062,0.19,0.127,0.38,0.193,0.569c0.092,0.263,0.19,0.524,0.29,0.783
			c0.071,0.184,0.142,0.367,0.217,0.55c0.107,0.26,0.22,0.517,0.335,0.773c0.054,0.12,0.102,0.244,0.158,0.363h-7.253
			L41.014,218.671h171.536l-3.222,42.192c-0.427-0.02-0.858-0.03-1.287-0.03c-11.522,0-21.87,7.296-25.745,18.151
			c-2.415,6.76-1.975,14.02,0.797,20.281c-6.149,3.096-11.067,8.47-13.479,15.222c-2.457,6.878-2.088,14.3,1.038,20.901
			c3.127,6.6,8.636,11.586,15.514,14.043c0.689,0.246,1.387,0.459,2.09,0.647c0.403,0.108,0.809,0.19,1.215,0.279
			c0.289,0.063,0.575,0.135,0.866,0.189c0.496,0.093,0.995,0.161,1.496,0.227c0.202,0.026,0.404,0.057,0.607,0.078
			c0.525,0.057,1.051,0.092,1.579,0.118c0.187,0.01,0.374,0.019,0.56,0.024c0.26,0.008,0.518,0.033,0.779,0.033
			c2.422,0,4.789-0.333,7.058-0.943c0.032-0.009,0.065-0.014,0.098-0.023l-0.436,5.71H88.086c-15.317,0-27.777,12.46-27.777,27.777
			v14.833C60.309,398.882,60.324,399.38,60.35,399.874z M76.41,383.549c0-6.437,5.238-11.674,11.674-11.674h121.454h22.637
			c6.437,0,11.673,5.238,11.673,11.674v14.833c0,6.436-5.237,11.672-11.673,11.672H88.106h-0.011h-0.011
			c-6.437,0-11.674-5.237-11.674-11.672V383.549z M268.759,318.414l-7.266,20.339l-45.259-16.165
			c-0.895-0.319-1.808-0.47-2.707-0.47c-3.306,0-6.407,2.053-7.582,5.346c-0.278,0.779-0.642,1.51-1.071,2.192
			c-0.206,0.33-0.428,0.646-0.666,0.949c-0.076,0.098-0.158,0.191-0.237,0.287c-0.229,0.273-0.467,0.536-0.719,0.784
			c-0.059,0.059-0.118,0.117-0.178,0.175c-0.282,0.266-0.581,0.514-0.888,0.749c-0.069,0.053-0.137,0.107-0.208,0.159
			c-0.337,0.245-0.687,0.472-1.049,0.68c-0.053,0.03-0.105,0.058-0.159,0.087c-0.777,0.427-1.604,0.763-2.463,0.999
			c-0.047,0.013-0.094,0.028-0.143,0.04c-0.417,0.108-0.842,0.191-1.272,0.251c-0.07,0.01-0.14,0.016-0.209,0.025
			c-0.437,0.053-0.878,0.087-1.324,0.087c-0.099,0-0.196-0.01-0.295-0.013c-1.181-0.031-2.352-0.244-3.484-0.646
			c-2.828-1.009-5.092-3.06-6.376-5.771c-1.285-2.713-1.437-5.763-0.427-8.589c1.593-4.459,5.847-7.457,10.585-7.457
			c0.484,0,0.974,0.032,1.455,0.096c0.396,0.053,0.789,0.069,1.178,0.062c0.029-0.001,0.059,0.005,0.088,0.004
			c0.021-0.001,0.041-0.004,0.062-0.004c0.169-0.005,0.336-0.02,0.502-0.036c0.543-0.05,1.07-0.155,1.577-0.308
			c0.002,0,0.003-0.001,0.005-0.001c3.304-1.004,5.712-4.066,5.712-7.698c0-2.381-1.043-4.511-2.687-5.985
			c-0.029-0.026-0.06-0.05-0.09-0.076c-0.293-0.256-0.604-0.488-0.933-0.7c-0.041-0.027-0.079-0.057-0.121-0.083
			c-0.196-0.122-0.382-0.257-0.569-0.389c-0.117-0.084-0.235-0.166-0.348-0.253c-0.14-0.107-0.273-0.22-0.406-0.333
			c-0.109-0.093-0.22-0.186-0.326-0.282c-0.127-0.117-0.248-0.238-0.369-0.361c-0.101-0.102-0.204-0.203-0.301-0.308
			c-0.116-0.127-0.225-0.258-0.335-0.389c-0.091-0.109-0.184-0.217-0.271-0.328c-0.104-0.135-0.202-0.275-0.301-0.414
			c-0.082-0.116-0.164-0.23-0.242-0.348c-0.093-0.144-0.179-0.292-0.265-0.44c-0.07-0.12-0.143-0.238-0.208-0.361
			c-0.083-0.152-0.156-0.31-0.231-0.466c-0.059-0.123-0.121-0.245-0.176-0.37c-0.07-0.161-0.131-0.326-0.194-0.491
			c-0.047-0.125-0.099-0.248-0.142-0.375c-0.058-0.17-0.106-0.341-0.156-0.513c-0.036-0.126-0.077-0.25-0.109-0.378
			c-0.045-0.177-0.079-0.356-0.116-0.536c-0.025-0.125-0.055-0.249-0.076-0.375c-0.031-0.185-0.05-0.371-0.073-0.558
			c-0.014-0.122-0.033-0.245-0.044-0.367c-0.016-0.193-0.02-0.389-0.027-0.583c-0.004-0.117-0.013-0.234-0.013-0.352
			c0-0.201,0.013-0.401,0.024-0.602c0.006-0.114,0.005-0.227,0.015-0.34c0.017-0.206,0.048-0.412,0.077-0.619
			c0.015-0.107,0.024-0.216,0.042-0.323c0.039-0.229,0.092-0.456,0.147-0.684c0.019-0.084,0.033-0.167,0.055-0.251
			c0.082-0.311,0.176-0.62,0.286-0.928c1.593-4.465,5.846-7.464,10.581-7.464c0.321,0,0.641,0.014,0.959,0.042
			c0.957,0.083,1.901,0.29,2.82,0.618c0.011,0.004,0.023,0.01,0.033,0.014c0.229,0.083,0.449,0.18,0.67,0.277
			c0.171,0.077,0.345,0.156,0.538,0.251c0.013,0.006,0.027,0.011,0.04,0.017c2.227,1.119,4.013,2.926,5.096,5.215
			c1.285,2.713,1.437,5.763,0.427,8.589c-0.719,2.011-0.609,4.225,0.305,6.154c0.915,1.93,2.557,3.418,4.569,4.136L268.759,318.414z
			 M147.374,126.903h36.256v8.922h-36.256V126.903z M34.878,151.927h104.444h52.358h27.004v14.702H34.878V151.927z M32.323,202.569
			h-8.869c-4.054,0-7.351-3.298-7.351-7.351v-5.134c0-4.054,3.298-7.352,7.353-7.352h3.373h199.91h3.375
			c4.052,0,7.35,3.298,7.35,7.352v5.134c0,4.054-3.297,7.351-7.35,7.351h-8.873H32.323z M495.897,444.678
			c0,6.551-5.329,11.878-11.878,11.878h-12.177H40.16H27.981c-6.551,0-11.878-5.329-11.878-11.878v-6.643
			c0-6.549,5.329-11.877,11.878-11.877H48.17h39.916h0.02h144.07h96.923h97.662h57.258c6.551,0,11.878,5.329,11.878,11.877V444.678z
			"/>
	</g>
</g>
</svg>