<?xml version="1.0" encoding="utf-8"?>
<!-- Uploaded to: SVG Repo, www.svgrepo.com, Generator: SVG Repo Mixer Tools -->
<svg width="800px" height="800px" viewBox="0 0 24 24" fill="none" xmlns="http://www.w3.org/2000/svg">
<g id="style=stroke">
<g id="share">
<path id="vector (Stroke)" fill-rule="evenodd" clip-rule="evenodd" d="M15.8358 16.1305L9.02549 12.1985L8.27549 13.4976L15.0858 17.4295L15.8358 16.1305Z" fill="#000000"/>
<path id="vector (Stroke)_2" fill-rule="evenodd" clip-rule="evenodd" d="M15.8358 7.8656L9.02549 11.7976L8.27549 10.4985L15.0858 6.56657L15.8358 7.8656Z" fill="#000000"/>
<path id="vector (Stroke)_3" fill-rule="evenodd" clip-rule="evenodd" d="M6.15 13.6438C7.06127 13.6438 7.8 12.905 7.8 11.9938C7.8 11.0825 7.06127 10.3438 6.15 10.3438C5.23873 10.3438 4.5 11.0825 4.5 11.9938C4.5 12.905 5.23873 13.6438 6.15 13.6438ZM6.15 15.1438C7.8897 15.1438 9.3 13.7334 9.3 11.9938C9.3 10.2541 7.8897 8.84375 6.15 8.84375C4.4103 8.84375 3 10.2541 3 11.9938C3 13.7334 4.4103 15.1438 6.15 15.1438Z" fill="#000000"/>
<path id="vector (Stroke)_4" fill-rule="evenodd" clip-rule="evenodd" d="M17.85 16.3455C18.7612 16.3455 19.5 17.0842 19.5 17.9955C19.5 18.9068 18.7612 19.6455 17.85 19.6455C16.9387 19.6455 16.2 18.9068 16.2 17.9955C16.2 17.0842 16.9387 16.3455 17.85 16.3455ZM17.85 14.8455C19.5896 14.8455 21 16.2558 21 17.9955C21 19.7352 19.5896 21.1455 17.85 21.1455C16.1103 21.1455 14.7 19.7352 14.7 17.9955C14.7 16.2558 16.1103 14.8455 17.85 14.8455Z" fill="#000000"/>
<path id="vector (Stroke)_5" fill-rule="evenodd" clip-rule="evenodd" d="M17.85 7.64961C18.7612 7.64961 19.5 6.91088 19.5 5.99961C19.5 5.08834 18.7612 4.34961 17.85 4.34961C16.9387 4.34961 16.2 5.08834 16.2 5.99961C16.2 6.91088 16.9387 7.64961 17.85 7.64961ZM17.85 9.14961C19.5896 9.14961 21 7.73931 21 5.99961C21 4.25991 19.5896 2.84961 17.85 2.84961C16.1103 2.84961 14.7 4.25991 14.7 5.99961C14.7 7.73931 16.1103 9.14961 17.85 9.14961Z" fill="#000000"/>
</g>
</g>
</svg>