<?xml version="1.0" encoding="iso-8859-1"?>
<!-- Uploaded to: SVG Repo, www.svgrepo.com, Generator: SVG Repo Mixer Tools -->
<svg fill="#000000" version="1.1" id="Layer_1" xmlns="http://www.w3.org/2000/svg" xmlns:xlink="http://www.w3.org/1999/xlink" 
	 viewBox="0 0 512 512" xml:space="preserve">
<g>
	<g>
		<path d="M455.954,151.921c0-57.331-24.67-111.989-67.686-149.957L386.043,0L124.905,0.907l-2.211,1.978
			C80.339,40.797,56.046,95.118,56.046,151.922c0,107.62,85.467,195.639,192.089,199.785l0.072,72.888l15.609-0.017l-0.072-72.867
			C370.423,347.625,455.954,259.581,455.954,151.921z M256,336.266c-101.648,0-184.344-82.697-184.344-184.344
			c0-51.388,21.568-100.575,59.272-135.426l249.2-0.867c38.307,34.913,60.216,84.416,60.216,136.292
			C440.344,253.57,357.647,336.266,256,336.266z"/>
	</g>
</g>
<g>
	<g>
		<path d="M367.909,504.165c-0.017-17.531-14.292-31.793-31.824-31.793h-32.049c-22.183,0-40.232-18.049-40.232-40.232h-15.609
			c0,22.183-18.049,40.232-40.232,40.232h-32.024c-17.547,0-31.824,14.276-31.824,31.824V512h215.989l7.812-0.023L367.909,504.165z
			 M161.73,496.391c2.762-5.009,8.095-8.409,14.209-8.409h32.024c20.408,0,38.294-11.005,48.037-27.391
			c9.742,16.387,27.629,27.391,48.037,27.391h32.049c6.109,0,11.441,3.399,14.205,8.409H161.73z"/>
	</g>
</g>
<g>
	<g>
		<path d="M336.062,64.058c-35.538,0-66.193,21.222-80.02,51.646c-13.787-30.572-44.494-51.629-80.103-51.629
			c-48.451,0-87.868,38.957-87.868,87.867c0,0.79,0.01,1.564,0.029,2.328c1.252,91.545,76.082,165.59,167.9,165.59
			c92.595,0,167.929-75.336,167.929-167.932C423.928,103.478,384.512,64.058,336.062,64.058z M103.908,156.876
			c-0.062-0.92-0.122-1.671-0.165-2.484c-0.028-0.816-0.062-1.63-0.062-2.451c0-39.544,32.416-72.257,72.258-72.257
			c39.841,0,72.253,32.709,72.256,72.25c-0.004,39.84-32.417,72.255-72.256,72.255c-37.344,0-68.162-28.731-71.881-64.896
			C104.013,158.486,103.963,157.681,103.908,156.876z M256,304.241c-59.922,0-111.873-34.783-136.728-85.215
			c15.31,12.946,35.093,20.763,56.665,20.763c48.442,0,87.855-39.407,87.866-87.848v-0.009v-0.009
			c0-39.843,32.414-72.257,72.257-72.257s72.258,32.414,72.258,72.257C408.319,235.911,339.989,304.241,256,304.241z"/>
	</g>
</g>
<g>
	<g>
		<path d="M143.913,112.092c-13.133,0-23.818,10.685-23.818,23.818s10.685,23.817,23.818,23.817s23.817-10.684,23.817-23.817
			S157.046,112.092,143.913,112.092z M143.913,144.118c-4.527,0-8.208-3.682-8.208-8.207c0.001-4.527,3.683-8.208,8.208-8.208
			s8.207,3.682,8.207,8.208C152.121,140.436,148.439,144.118,143.913,144.118z"/>
	</g>
</g>
<g>
	<g>
		<path d="M260.003,40.037c-10.926,0-19.814,8.888-19.814,19.814s8.888,19.815,19.814,19.815s19.814-8.889,19.814-19.815
			S270.928,40.037,260.003,40.037z M260.003,64.056c-2.318,0-4.204-1.887-4.204-4.205c0-2.319,1.887-4.204,4.204-4.204
			c2.319,0,4.204,1.887,4.204,4.204C264.207,62.17,262.32,64.056,260.003,64.056z"/>
	</g>
</g>
<g>
	<g>
		<rect x="127.998" y="32.27" width="56.194" height="15.609"/>
	</g>
</g>
<g>
	<g>
		<rect x="199.801" y="32.27" width="23.935" height="15.609"/>
	</g>
</g>
</svg>