<?xml version="1.0" encoding="iso-8859-1"?>
<!-- Uploaded to: SVG Repo, www.svgrepo.com, Generator: SVG Repo Mixer Tools -->
<svg fill="#000000" height="800px" width="800px" version="1.1" id="Layer_1" xmlns="http://www.w3.org/2000/svg" xmlns:xlink="http://www.w3.org/1999/xlink" 
	 viewBox="0 0 511.998 511.998" xml:space="preserve">
<g>
	<g>
		<path d="M247.405,69.463c0-2.737,0.581-3.49,2.745-6.294c3.01-3.9,7.559-9.796,7.559-20.412c0-6.38-5.172-11.554-11.554-11.554
			c-6.381,0-11.554,5.174-11.554,11.554c0,2.737-0.581,3.49-2.745,6.294c-3.01,3.9-7.56,9.796-7.56,20.412
			c0,10.617,4.55,16.511,7.56,20.413c2.165,2.805,2.746,3.559,2.746,6.297c0,2.737-0.581,3.49-2.745,6.296
			c-3.012,3.902-7.562,9.796-7.562,20.414c0,6.38,5.173,11.554,11.554,11.554c6.381,0,11.554-5.174,11.554-11.554
			c0-2.738,0.581-3.492,2.746-6.297c3.01-3.902,7.559-9.796,7.559-20.413c0-10.617-4.55-16.512-7.559-20.414
			C247.986,72.953,247.405,72.2,247.405,69.463z"/>
	</g>
</g>
<g>
	<g>
		<path d="M299.832,92.851c0-2.736,0.581-3.49,2.745-6.293c3.011-3.901,7.559-9.795,7.559-20.412c0-6.38-5.172-11.554-11.554-11.554
			s-11.554,5.174-11.554,11.554c0,2.737-0.581,3.49-2.745,6.294c-3.01,3.9-7.559,9.795-7.559,20.411
			c0,10.617,4.55,16.512,7.559,20.414c2.164,2.804,2.745,3.558,2.745,6.296c0,2.738-0.581,3.491-2.746,6.297
			c-3.01,3.902-7.558,9.796-7.558,20.413c0,6.38,5.173,11.554,11.554,11.554c6.381,0,11.554-5.174,11.554-11.554
			c0-2.737,0.581-3.49,2.745-6.296c3.01-3.902,7.559-9.796,7.559-20.414c0-10.615-4.549-16.511-7.558-20.413
			C300.413,96.342,299.832,95.589,299.832,92.851z"/>
	</g>
</g>
<g>
	<g>
		<path d="M467.756,212.853h-27.432v-28.929c0-6.38-5.173-11.554-11.554-11.554H108.973c-6.381,0-11.554,5.174-11.554,11.554v138.2
			c-39.695-13.703-83.343-6.762-85.797-6.353c-4.872,0.81-8.691,4.628-9.502,9.502c-0.551,3.311-13.005,81.596,29.4,124.001
			c26.361,26.359,66.585,31.522,94.046,31.522c2.515,0,4.907-0.047,7.186-0.121c0.451,0.053,0.907,0.089,1.371,0.089h31.323
			c0.266,0.001,0.522,0.006,0.79,0.006c0.308,0,0.627-0.005,0.938-0.006h214.72c32.216,0,58.425-26.209,58.425-58.424v-68.009
			h27.432c24.396,0,44.244-19.848,44.244-44.244v-52.987C512,232.701,492.152,212.853,467.756,212.853z M143.974,440.737
			c-0.006,0.708-0.014,1.41-0.027,2.097c-0.002,0.116-0.003,0.232-0.006,0.347c-0.035,1.755-0.091,3.438-0.162,5.034
			c-0.001,0.018-0.001,0.036-0.002,0.053c-0.146,3.258-0.352,6.161-0.568,8.61c-19.635,1.757-68.413,2.991-95.349-23.945
			c-26.844-26.843-25.657-75.723-23.925-95.366c19.636-1.76,68.413-2.99,95.348,23.945c7.041,7.041,12.138,15.602,15.818,24.749
			c0.02,0.051,0.034,0.104,0.054,0.156c5.756,14.393,7.99,30.186,8.621,43.842c0.008,0.168,0.017,0.336,0.024,0.503
			c0.024,0.571,0.045,1.135,0.065,1.697c0.013,0.364,0.024,0.726,0.034,1.086c0.014,0.477,0.028,0.953,0.037,1.422
			c0.016,0.767,0.029,1.529,0.036,2.278c0.002,0.277,0.002,0.548,0.005,0.821c0.003,0.645,0.005,1.284,0.002,1.912
			C143.978,440.233,143.977,440.485,143.974,440.737z M166.377,457.617c1.368-16.228,2.017-46.832-8.045-75.223
			c3.763-8.233,8.512-15.245,14.151-20.884c26.842-26.842,75.715-25.66,95.366-23.926c1.76,19.635,2.992,68.413-23.945,95.349
			C223.285,453.552,189.242,457.555,166.377,457.617z M417.218,422.337h-0.001c0,19.474-15.843,35.317-35.318,35.317H250.48
			c3.414-2.526,6.686-5.304,9.764-8.382c10.916-10.916,18.19-24.212,22.974-37.992h57.478c6.381,0,11.554-5.174,11.554-11.554
			s-5.172-11.554-11.554-11.554h-51.614c5.497-31.989,0.894-60.917,0.564-62.902c-0.81-4.873-4.628-8.691-9.502-9.502
			c-3.311-0.552-81.596-13.003-124.001,29.4c-3.734,3.734-7.14,7.897-10.241,12.417c-3.005-4.381-6.412-8.548-10.279-12.417
			c-4.649-4.649-9.73-8.639-15.096-12.057V195.475h195.758l-33.118,28.929c-2.521,2.201-3.963,5.389-3.952,8.736l0.211,72.009
			c0.018,6.368,5.186,11.52,11.554,11.52h101.478c6.367,0,11.535-5.152,11.554-11.52l0.21-72.009
			c0.009-3.346-1.433-6.534-3.952-8.736l-33.118-28.929h50.068V422.337z M341.716,203.944l39.38,34.398l-0.162,55.22h-78.439
			l-0.162-55.22L341.716,203.944z M488.893,310.084c0,11.655-9.482,21.137-21.137,21.137h-27.432V235.96h27.432
			c11.655,0,21.137,9.482,21.137,21.137V310.084z"/>
	</g>
</g>
<g>
	<g>
		<path d="M391.643,397.467c-0.15-0.741-0.37-1.456-0.659-2.161c-0.289-0.693-0.647-1.363-1.063-1.987
			c-0.427-0.637-0.913-1.226-1.444-1.757c-0.531-0.531-1.121-1.017-1.756-1.444c-0.624-0.415-1.294-0.774-1.987-1.063
			c-0.705-0.289-1.433-0.507-2.161-0.659c-1.49-0.3-3.027-0.3-4.517,0c-0.739,0.151-1.467,0.37-2.16,0.659
			c-0.705,0.289-1.375,0.648-1.999,1.063c-0.635,0.427-1.225,0.913-1.756,1.444c-0.531,0.531-1.017,1.121-1.433,1.757
			c-0.416,0.624-0.774,1.294-1.063,1.987c-0.289,0.705-0.508,1.42-0.659,2.161c-0.15,0.75-0.231,1.502-0.231,2.264
			c0,3.039,1.236,6.019,3.385,8.168c2.149,2.148,5.13,3.385,8.168,3.385c3.05,0,6.019-1.236,8.168-3.385
			c2.161-2.149,3.385-5.13,3.385-8.168C391.863,398.969,391.793,398.217,391.643,397.467z"/>
	</g>
</g>
</svg>